<!-- <svg   xmlns="http://www.w3.org/2000/svg" viewBox="0 0 1440 500">
                     
        <path fill="url(#paint0_linear)" fill-opacity="1" d="M0 0H1136V259C1136 259 840.5 -8.5 568 253.5C295.5 515.5 0 248 0 248V0Z"> </path>
        <linearGradient id="paint0_linear" x1="486.063" y1="0" x2="474" y2="781" gradientUnits="userSpaceOnUse">
        <stop  stop-color="#F12711"/> 
        <stop offset="100%" stop-color="#F5AF19"/>
        </linearGradient>

</svg> -->
<svg  style="transform:rotate(180deg); transition: 0.3s" viewBox="0 0 1440 490" version="1.1" xmlns="http://www.w3.org/2000/svg">
        <defs>
                <linearGradient id="sw-gradient-0" x1="0" x2="0" y1="1" y2="0">
                        <stop stop-color="rgba(243, 106, 62, 1)" offset="0%">
                        </stop>
                        <stop stop-color="rgba(255, 179, 11, 1)" offset="100%"></stop>
                </linearGradient>
        </defs>
<path style="transform:translate(0, 0px); opacity:1" fill="url(#sw-gradient-0)" d="M0,343L80,285.8C160,229,320,114,480,65.3C640,16,800,33,960,98C1120,163,1280,278,1440,302.2C1600,327,1760,261,1920,228.7C2080,196,2240,196,2400,179.7C2560,163,2720,131,2880,122.5C3040,114,3200,131,3360,147C3520,163,3680,180,3840,220.5C4000,261,4160,327,4320,326.7C4480,327,4640,261,4800,228.7C4960,196,5120,196,5280,163.3C5440,131,5600,65,5760,98C5920,131,6080,261,6240,326.7C6400,392,6560,392,6720,375.7C6880,359,7040,327,7200,261.3C7360,196,7520,98,7680,89.8C7840,82,8000,163,8160,220.5C8320,278,8480,310,8640,294C8800,278,8960,212,9120,163.3C9280,114,9440,82,9600,130.7C9760,180,9920,310,10080,351.2C10240,392,10400,343,10560,269.5C10720,196,10880,98,11040,122.5C11200,147,11360,294,11440,367.5L11520,441L11520,490L11440,490C11360,490,11200,490,11040,490C10880,490,10720,490,10560,490C10400,490,10240,490,10080,490C9920,490,9760,490,9600,490C9440,490,9280,490,9120,490C8960,490,8800,490,8640,490C8480,490,8320,490,8160,490C8000,490,7840,490,7680,490C7520,490,7360,490,7200,490C7040,490,6880,490,6720,490C6560,490,6400,490,6240,490C6080,490,5920,490,5760,490C5600,490,5440,490,5280,490C5120,490,4960,490,4800,490C4640,490,4480,490,4320,490C4160,490,4000,490,3840,490C3680,490,3520,490,3360,490C3200,490,3040,490,2880,490C2720,490,2560,490,2400,490C2240,490,2080,490,1920,490C1760,490,1600,490,1440,490C1280,490,1120,490,960,490C800,490,640,490,480,490C320,490,160,490,80,490L0,490Z"></path>
</svg>