<svg height="100%" width="100%" id="svg" viewBox="0 0 1440 500" xmlns="http://www.w3.org/2000/svg" class="transition duration-300 ease-in-out delay-150"><path d="M 0,500 C 0,500 0,250 0,250 C 53.05892218522628,204.08622518189668 106.11784437045256,158.17245036379333 158,163 C 209.88215562954744,167.82754963620667 260.58754470341603,223.39642372672336 312,239 C 363.41245529658397,254.60357627327664 415.53197681588347,230.24185472931308 474,227 C 532.4680231841165,223.75814527068692 597.2845480330496,241.63615735602423 655,265 C 712.7154519669504,288.3638426439758 763.3298310519176,317.21351584659016 812,293 C 860.6701689480824,268.78648415340984 907.3961277592798,191.50977925761498 952,163 C 996.6038722407202,134.49022074238502 1039.0856579109632,154.7473671229498 1094,169 C 1148.9143420890368,183.2526328770502 1216.2612405968678,191.50075225058578 1276,204 C 1335.7387594031322,216.49924774941422 1387.8693797015662,233.2496238747071 1440,250 C 1440,250 1440,500 1440,500 Z" stroke="none" stroke-width="0" fill="#0693e3ff" class="transition-all duration-300 ease-in-out delay-150" transform="rotate(-180 720 250)"></path></svg>